<?xml version="1.0" encoding="UTF-8" standalone="no"?>
<!-- Created with Inkscape (http://www.inkscape.org/) -->

<svg
   xmlns:dc="http://purl.org/dc/elements/1.1/"
   xmlns:cc="http://creativecommons.org/ns#"
   xmlns:rdf="http://www.w3.org/1999/02/22-rdf-syntax-ns#"
   xmlns:svg="http://www.w3.org/2000/svg"
   xmlns="http://www.w3.org/2000/svg"
   xmlns:sodipodi="http://sodipodi.sourceforge.net/DTD/sodipodi-0.dtd"
   xmlns:inkscape="http://www.inkscape.org/namespaces/inkscape"
   width="1029.4772mm"
   height="238.76898mm"
   viewBox="0 0 1029.4772 238.76898"
   version="1.1"
   id="svg8"
   inkscape:version="0.92.4 (5da689c313, 2019-01-14)"
   sodipodi:docname="certegy_logo_blue.svg">
  <defs
     id="defs2" />
  <sodipodi:namedview
     id="base"
     pagecolor="#ffffff"
     bordercolor="#666666"
     borderopacity="1.0"
     inkscape:pageopacity="0.0"
     inkscape:pageshadow="2"
     inkscape:zoom="0.35"
     inkscape:cx="2458.8392"
     inkscape:cy="-1088.8776"
     inkscape:document-units="mm"
     inkscape:current-layer="layer1"
     showgrid="false"
     fit-margin-top="5"
     fit-margin-left="5"
     fit-margin-right="5"
     fit-margin-bottom="5"
     inkscape:window-width="3840"
     inkscape:window-height="2004"
     inkscape:window-x="-16"
     inkscape:window-y="-16"
     inkscape:window-maximized="1" />
  <metadata
     id="metadata5">
    <rdf:RDF>
      <cc:Work
         rdf:about="">
        <dc:format>image/svg+xml</dc:format>
        <dc:type
           rdf:resource="http://purl.org/dc/dcmitype/StillImage" />
        <dc:title></dc:title>
      </cc:Work>
    </rdf:RDF>
  </metadata>
  <g
     inkscape:label="Layer 1"
     inkscape:groupmode="layer"
     id="layer1"
     transform="translate(3438.3217,1216.5531)">
    <flowRoot
       xml:space="preserve"
       id="flowRoot10"
       style="font-style:normal;font-weight:normal;font-size:26.66666603px;line-height:1.25;font-family:sans-serif;letter-spacing:0px;word-spacing:0px;fill:#000000;fill-opacity:1;stroke:none"
       transform="scale(0.26458333)"><flowRegion
         id="flowRegion12"><rect
           id="rect14"
           width="5580"
           height="1145.7142"
           x="-2937.1428"
           y="-974.62317" /></flowRegion><flowPara
         id="flowPara16"></flowPara></flowRoot>    <flowRoot
       xml:space="preserve"
       id="flowRoot18"
       style="font-style:normal;font-weight:normal;font-size:26.66666603px;line-height:1.25;font-family:sans-serif;letter-spacing:0px;word-spacing:0px;fill:#000000;fill-opacity:1;stroke:none"
       transform="scale(0.26458333)"><flowRegion
         id="flowRegion20"><rect
           id="rect22"
           width="7091.4287"
           height="1431.4286"
           x="-4168.5713"
           y="-880.33746" /></flowRegion><flowPara
         id="flowPara24"></flowPara></flowRoot>    <flowRoot
       xml:space="preserve"
       id="flowRoot34"
       style="font-style:normal;font-weight:normal;font-size:26.66666603px;line-height:1.25;font-family:sans-serif;letter-spacing:0px;word-spacing:0px;fill:#000000;fill-opacity:1;stroke:none"
       transform="scale(0.26458333)"><flowRegion
         id="flowRegion36"><rect
           id="rect38"
           width="571.42859"
           height="77.14286"
           x="-3714.2856"
           y="-1277.4803" /></flowRegion><flowPara
         id="flowPara40"></flowPara></flowRoot>    <flowRoot
       xml:space="preserve"
       id="flowRoot42"
       style="font-style:normal;font-weight:normal;font-size:26.66666603px;line-height:1.25;font-family:sans-serif;letter-spacing:0px;word-spacing:0px;fill:#000000;fill-opacity:1;stroke:none"
       transform="scale(0.26458333)"><flowRegion
         id="flowRegion44"><rect
           id="rect46"
           width="1354.2858"
           height="45.714287"
           x="-3940"
           y="-1151.766" /></flowRegion><flowPara
         id="flowPara48"></flowPara></flowRoot>    <flowRoot
       xml:space="preserve"
       id="flowRoot62"
       style="font-style:normal;font-weight:normal;font-size:26.66666603px;line-height:1.25;font-family:sans-serif;letter-spacing:0px;word-spacing:0px;fill:#000000;fill-opacity:1;stroke:none"><flowRegion
         id="flowRegion64"><rect
           id="rect66"
           width="1194.2858"
           height="377.14285"
           x="-3862.8572"
           y="-1368.9089" /></flowRegion><flowPara
         id="flowPara68"></flowPara></flowRoot>    <flowRoot
       xml:space="preserve"
       id="flowRoot70"
       style="font-style:normal;font-variant:normal;font-weight:normal;font-stretch:normal;font-size:26.66666603px;line-height:1.25;font-family:'Agency FB';-inkscape-font-specification:'Agency FB';letter-spacing:0px;word-spacing:0px;fill:#000000;fill-opacity:1;stroke:none"
       transform="scale(0.26458333)"><flowRegion
         id="flowRegion72"
         style="font-style:normal;font-variant:normal;font-weight:normal;font-stretch:normal;font-family:'Agency FB';-inkscape-font-specification:'Agency FB'"><rect
           id="rect74"
           width="5777.1431"
           height="1274.2858"
           x="-13080"
           y="-4580.3374"
           style="font-style:normal;font-variant:normal;font-weight:normal;font-stretch:normal;font-family:'Agency FB';-inkscape-font-specification:'Agency FB'" /></flowRegion><flowPara
         id="flowPara76"></flowPara></flowRoot>    <g
       aria-label="CERTEGY"
       transform="matrix(0.80168915,0,0,0.87397004,6969.9698,2781.6769)"
       style="font-style:normal;font-variant:normal;font-weight:bold;font-stretch:normal;font-size:192px;line-height:1.25;font-family:'Gill Sans MT';-inkscape-font-specification:'Gill Sans MT Bold';letter-spacing:0px;word-spacing:0px;fill:#000000;fill-opacity:1;stroke:none"
       id="flowRoot78">
      <path
         d="m -12849.027,-4475.0819 v 28.5937 q -24.563,13.0313 -51.469,13.0313 -34.875,0 -55.594,-19.2188 -20.625,-19.3125 -20.625,-47.5312 0,-28.2188 21.75,-47.9063 21.844,-19.6875 57,-19.6875 28.031,0 47.438,11.5313 v 29.1562 q -23.813,-13.4062 -45.094,-13.4062 -20.906,0 -34.219,11.25 -13.219,11.1562 -13.219,28.5 0,17.4375 13.032,28.7812 13.125,11.3438 33.562,11.3438 10.125,0 19.5,-2.625 9.375,-2.7188 27.938,-11.8125 z"
         style="font-style:normal;font-variant:normal;font-weight:bold;font-stretch:normal;line-height:1.25;font-family:'Gill Sans MT';-inkscape-font-specification:'Gill Sans MT Bold';text-align:start;letter-spacing:44.7399826px;text-anchor:start;fill:#00244d;fill-opacity:1"
         id="path10353" />
      <path
         d="m -12681.287,-4459.1444 v 24 h -96.563 v -130.9688 h 95.25 v 24 h -62.625 v 27.4688 h 59.719 v 24 h -59.719 v 31.5 z"
         style="font-style:normal;font-variant:normal;font-weight:bold;font-stretch:normal;line-height:1.25;font-family:'Gill Sans MT';-inkscape-font-specification:'Gill Sans MT Bold';text-align:start;letter-spacing:44.7399826px;text-anchor:start;fill:#00244d;fill-opacity:1"
         id="path10355" />
      <path
         d="m -12611.61,-4566.1132 h 58.5 q 19.031,0 30.938,11.0625 11.906,10.9688 11.906,26.625 0,21.6563 -22.5,32.0625 9.937,4.4063 18.75,24.0938 8.906,19.6875 17.156,37.125 h -35.906 q -3.188,-6.4688 -11.156,-24.6563 -7.875,-18.1875 -13.594,-23.3437 -5.625,-5.1563 -12.094,-5.1563 h -9.375 v 53.1563 h -32.625 z m 32.625,24 v 29.8125 h 17.25 q 8.25,0 13.031,-3.8437 4.875,-3.9375 4.875,-11.1563 0,-14.8125 -18.656,-14.8125 z"
         style="font-style:normal;font-variant:normal;font-weight:bold;font-stretch:normal;line-height:1.25;font-family:'Gill Sans MT';-inkscape-font-specification:'Gill Sans MT Bold';text-align:start;letter-spacing:44.7399826px;text-anchor:start;fill:#00244d;fill-opacity:1"
         id="path10357" />
      <path
         d="m -12329.917,-4566.1132 v 24 h -47.437 v 106.9688 h -32.625 v -106.9688 h -47.438 v -24 z"
         style="font-style:normal;font-variant:normal;font-weight:bold;font-stretch:normal;line-height:1.25;font-family:'Gill Sans MT';-inkscape-font-specification:'Gill Sans MT Bold';text-align:start;letter-spacing:44.7399826px;text-anchor:start;fill:#00244d;fill-opacity:1"
         id="path10359" />
      <path
         d="m -12168.317,-4459.1444 v 24 h -96.563 v -130.9688 h 95.25 v 24 h -62.625 v 27.4688 h 59.719 v 24 h -59.719 v 31.5 z"
         style="font-style:normal;font-variant:normal;font-weight:bold;font-stretch:normal;line-height:1.25;font-family:'Gill Sans MT';-inkscape-font-specification:'Gill Sans MT Bold';text-align:start;letter-spacing:44.7399826px;text-anchor:start;fill:#00244d;fill-opacity:1"
         id="path10361" />
      <path
         d="m -11973.671,-4557.0194 v 28.5937 q -25.031,-12.0937 -48.938,-12.0937 -23.062,0 -35.531,11.625 -12.469,11.625 -12.469,29.625 0,17.25 12.469,27.9375 12.469,10.6875 32.813,10.6875 10.781,0 21.656,-4.6875 v -15.2813 h -18.938 v -24 h 51.657 v 53.5313 q -7.782,7.7812 -23.719,12.75 -15.844,4.875 -31.406,4.875 -34.219,0 -56.25,-18.8438 -21.938,-18.9375 -21.938,-48.0937 0,-29.8125 21.938,-48.5625 22.031,-18.8438 57,-18.8438 28.875,0 51.656,10.7813 z"
         style="font-style:normal;font-variant:normal;font-weight:bold;font-stretch:normal;line-height:1.25;font-family:'Gill Sans MT';-inkscape-font-specification:'Gill Sans MT Bold';text-align:start;letter-spacing:44.7399826px;text-anchor:start;fill:#00244d;fill-opacity:1"
         id="path10363" />
      <path
         d="m -11860.869,-4435.1444 v -61.2188 l -51.656,-69.75 h 39.563 l 28.406,41.1563 28.594,-41.1563 h 39.375 l -51.657,69.75 v 61.2188 z"
         style="font-style:normal;font-variant:normal;font-weight:bold;font-stretch:normal;line-height:1.25;font-family:'Gill Sans MT';-inkscape-font-specification:'Gill Sans MT Bold';text-align:start;letter-spacing:44.7399826px;text-anchor:start;fill:#00244d;fill-opacity:1"
         id="path10365" />
    </g>
    <flowRoot
       xml:space="preserve"
       id="flowRoot86"
       style="font-style:normal;font-weight:normal;font-size:26.66666603px;line-height:1.25;font-family:sans-serif;letter-spacing:0px;word-spacing:0px;fill:#000000;fill-opacity:1;stroke:none"
       transform="scale(0.26458333)"><flowRegion
         id="flowRegion88"><rect
           id="rect90"
           width="1571.4286"
           height="388.57144"
           x="-13108.571"
           y="-4606.0518" /></flowRegion><flowPara
         id="flowPara92"></flowPara></flowRoot>    <flowRoot
       xml:space="preserve"
       id="flowRoot94"
       style="font-style:normal;font-weight:normal;font-size:26.66666603px;line-height:1.25;font-family:sans-serif;letter-spacing:0px;word-spacing:0px;fill:#000000;fill-opacity:1;stroke:none"
       transform="scale(0.26458333)"><flowRegion
         id="flowRegion96"><rect
           id="rect98"
           width="1737.1432"
           height="565.71417"
           x="-13234.286"
           y="-4688.9087" /></flowRegion><flowPara
         id="flowPara100"></flowPara></flowRoot>    <flowRoot
       xml:space="preserve"
       id="flowRoot102"
       style="font-style:normal;font-weight:normal;font-size:26.66666603px;line-height:1.25;font-family:sans-serif;letter-spacing:0px;word-spacing:0px;fill:#000000;fill-opacity:1;stroke:none"
       transform="scale(0.26458333)"><flowRegion
         id="flowRegion104"><rect
           id="rect106"
           width="4062.8572"
           height="871.42859"
           x="-13077.143"
           y="-4794.623" /></flowRegion><flowPara
         id="flowPara108"></flowPara></flowRoot>    <g
       aria-label="DEVELOPER"
       transform="matrix(0.45773868,0,0,0.60950013,2819.37,1719.4085)"
       style="font-style:normal;font-variant:normal;font-weight:bold;font-stretch:normal;font-size:192px;line-height:1.25;font-family:'Gill Sans MT';-inkscape-font-specification:'Gill Sans MT Bold';letter-spacing:0px;word-spacing:0px;fill:#000000;fill-opacity:1;stroke:none"
       id="flowRoot78-7">
      <path
         d="m -12971.277,-4566.1132 h 57.75 q 33.468,0 52.875,18.375 19.5,18.2813 19.5,47.3438 0,30.4687 -19.782,47.9062 -19.687,17.3438 -56.25,17.3438 h -54.093 z m 32.625,24 v 82.9688 h 21.281 q 20.719,0 31.687,-11.3438 10.969,-11.4375 10.969,-30.0937 0,-19.3125 -11.156,-30.375 -11.063,-11.1563 -31.875,-11.1563 z"
         style="font-style:normal;font-variant:normal;font-weight:bold;font-stretch:normal;line-height:1.25;font-family:'Gill Sans MT';-inkscape-font-specification:'Gill Sans MT Bold';text-align:start;letter-spacing:22.7899971px;text-anchor:start;fill:#00244d;fill-opacity:0.50196078"
         id="path10334" />
      <path
         d="m -12697.237,-4459.1444 v 24 h -96.563 v -130.9688 h 95.25 v 24 h -62.625 v 27.4688 h 59.719 v 24 h -59.719 v 31.5 z"
         style="font-style:normal;font-variant:normal;font-weight:bold;font-stretch:normal;line-height:1.25;font-family:'Gill Sans MT';-inkscape-font-specification:'Gill Sans MT Bold';text-align:start;letter-spacing:22.7899971px;text-anchor:start;fill:#00244d;fill-opacity:0.50196078"
         id="path10336" />
      <path
         d="m -12526.041,-4566.1132 -60.563,132.6563 h -14.156 l -63.375,-132.6563 h 35.531 l 34.594,74.7188 32.813,-74.7188 z"
         style="font-style:normal;font-variant:normal;font-weight:bold;font-stretch:normal;line-height:1.25;font-family:'Gill Sans MT';-inkscape-font-specification:'Gill Sans MT Bold';text-align:start;letter-spacing:22.7899971px;text-anchor:start;fill:#00244d;fill-opacity:0.50196078"
         id="path10338" />
      <path
         d="m -12391.782,-4459.1444 v 24 h -96.563 v -130.9688 h 95.25 v 24 h -62.625 v 27.4688 h 59.719 v 24 h -59.719 v 31.5 z"
         style="font-style:normal;font-variant:normal;font-weight:bold;font-stretch:normal;line-height:1.25;font-family:'Gill Sans MT';-inkscape-font-specification:'Gill Sans MT Bold';text-align:start;letter-spacing:22.7899971px;text-anchor:start;fill:#00244d;fill-opacity:0.50196078"
         id="path10340" />
      <path
         d="m -12244.211,-4459.1444 v 24 h -99.844 v -130.9688 h 32.625 v 106.9688 z"
         style="font-style:normal;font-variant:normal;font-weight:bold;font-stretch:normal;line-height:1.25;font-family:'Gill Sans MT';-inkscape-font-specification:'Gill Sans MT Bold';text-align:start;letter-spacing:22.7899971px;text-anchor:start;fill:#00244d;fill-opacity:0.50196078"
         id="path10342" />
      <path
         d="m -12133.671,-4567.8007 q 33.469,0 54.187,20.25 20.719,20.1563 20.719,46.9688 0,27.1875 -21,47.1562 -21,19.9688 -53.906,19.9688 -33.281,0 -54.188,-19.875 -20.906,-19.875 -20.906,-47.25 0,-26.9063 20.719,-47.0625 20.812,-20.1563 54.375,-20.1563 z m 0,107.1563 q 18.562,0 29.906,-10.9688 11.344,-11.0625 11.344,-28.9687 0,-18 -11.344,-28.9688 -11.344,-10.9687 -29.906,-10.9687 -18.656,0 -30.094,10.9687 -11.344,10.9688 -11.344,28.9688 0,17.9062 11.344,28.9687 11.438,10.9688 30.094,10.9688 z"
         style="font-style:normal;font-variant:normal;font-weight:bold;font-stretch:normal;line-height:1.25;font-family:'Gill Sans MT';-inkscape-font-specification:'Gill Sans MT Bold';text-align:start;letter-spacing:22.7899971px;text-anchor:start;fill:#00244d;fill-opacity:0.50196078"
         id="path10344" />
      <path
         d="m -12011.037,-4566.1132 h 58.406 q 19.875,0 31.594,11.5313 11.718,11.5312 11.718,27.2812 0,16.3125 -11.625,27.9375 -11.531,11.625 -31.5,11.625 h -25.968 v 52.5938 h -32.625 z m 32.625,24 v 30.375 h 15.187 q 20.344,0 20.344,-15.1875 0,-8.5312 -5.438,-11.8125 -5.437,-3.375 -18.562,-3.375 z"
         style="font-style:normal;font-variant:normal;font-weight:bold;font-stretch:normal;line-height:1.25;font-family:'Gill Sans MT';-inkscape-font-specification:'Gill Sans MT Bold';text-align:start;letter-spacing:22.7899971px;text-anchor:start;fill:#00244d;fill-opacity:0.50196078"
         id="path10346" />
      <path
         d="m -11766.622,-4459.1444 v 24 h -96.563 v -130.9688 h 95.25 v 24 h -62.625 v 27.4688 h 59.719 v 24 h -59.719 v 31.5 z"
         style="font-style:normal;font-variant:normal;font-weight:bold;font-stretch:normal;line-height:1.25;font-family:'Gill Sans MT';-inkscape-font-specification:'Gill Sans MT Bold';text-align:start;letter-spacing:22.7899971px;text-anchor:start;fill:#00244d;fill-opacity:0.50196078"
         id="path10348" />
      <path
         d="m -11718.895,-4566.1132 h 58.5 q 19.031,0 30.938,11.0625 11.906,10.9688 11.906,26.625 0,21.6563 -22.5,32.0625 9.937,4.4063 18.75,24.0938 8.906,19.6875 17.156,37.125 h -35.906 q -3.188,-6.4688 -11.156,-24.6563 -7.875,-18.1875 -13.594,-23.3437 -5.625,-5.1563 -12.094,-5.1563 h -9.375 v 53.1563 h -32.625 z m 32.625,24 v 29.8125 h 17.25 q 8.25,0 13.031,-3.8437 4.875,-3.9375 4.875,-11.1563 0,-14.8125 -18.656,-14.8125 z"
         style="font-style:normal;font-variant:normal;font-weight:bold;font-stretch:normal;line-height:1.25;font-family:'Gill Sans MT';-inkscape-font-specification:'Gill Sans MT Bold';text-align:start;letter-spacing:22.7899971px;text-anchor:start;fill:#00244d;fill-opacity:0.50196078"
         id="path10350" />
    </g>
    <flowRoot
       xml:space="preserve"
       id="flowRoot134"
       style="font-style:normal;font-weight:normal;font-size:26.66666603px;line-height:1.25;font-family:sans-serif;letter-spacing:0px;word-spacing:0px;fill:#000000;fill-opacity:1;stroke:none"
       transform="scale(0.26458333)"><flowRegion
         id="flowRegion136"><rect
           id="rect138"
           width="2977.1428"
           height="80"
           x="-12057.143"
           y="-3806.0518" /></flowRegion><flowPara
         id="flowPara140"></flowPara></flowRoot>    <flowRoot
       xml:space="preserve"
       id="flowRoot142"
       style="font-style:normal;font-weight:normal;font-size:26.66666603px;line-height:1.25;font-family:sans-serif;letter-spacing:0px;word-spacing:0px;fill:#000000;fill-opacity:1;stroke:none"
       transform="scale(0.26458333)"><flowRegion
         id="flowRegion144"><rect
           id="rect146"
           width="485.71429"
           height="60"
           x="-9854.2861"
           y="-3746.0518" /></flowRegion><flowPara
         id="flowPara148"></flowPara></flowRoot>    <flowRoot
       xml:space="preserve"
       id="flowRoot9494"
       style="font-style:normal;font-weight:normal;font-size:26.66666603px;line-height:1.25;font-family:sans-serif;letter-spacing:0px;word-spacing:0px;fill:#000000;fill-opacity:1;stroke:none"
       transform="scale(0.26458333)"><flowRegion
         id="flowRegion9496"><rect
           id="rect9498"
           width="388.57144"
           height="465.71429"
           x="-11205.714"
           y="-3317.4802" /></flowRegion><flowPara
         id="flowPara9500"></flowPara></flowRoot>    <g
       aria-label="®"
       transform="matrix(0.26458333,0,0,0.26458333,479.95403,-375.70833)"
       style="font-style:normal;font-weight:normal;font-size:192px;line-height:1.25;font-family:sans-serif;letter-spacing:0px;word-spacing:0px;fill:#000000;fill-opacity:1;stroke:none"
       id="flowRoot9502">
      <path
         d="m -10937.191,-3078.0045 q 0,33.5625 -23.813,57.375 -23.719,23.7188 -57.281,23.7188 -33.563,0 -57.375,-23.7188 -23.719,-23.8125 -23.719,-57.375 0,-33.5625 23.719,-57.2812 23.812,-23.8125 57.375,-23.8125 33.562,0 57.281,23.8125 23.813,23.7187 23.813,57.2812 z m -10.875,0 q 0,-29.0625 -20.625,-49.875 -20.532,-20.8125 -49.594,-20.8125 -29.063,0 -49.688,20.8125 -20.531,20.8125 -20.531,49.875 0,29.0625 20.531,49.875 20.625,20.8125 49.688,20.8125 29.062,0 49.594,-20.8125 20.625,-20.8125 20.625,-49.875 z m -18,41.25 h -20.907 l -31.031,-33.2812 h -15.187 v 33.2812 h -15.469 v -85.7812 h 29.25 q 8.812,0 14.531,0.75 5.719,0.75 11.25,3.6562 5.906,3.1875 8.625,7.7813 2.813,4.5 2.813,11.3437 0,9.0938 -5.344,15.1875 -5.25,6 -14.531,9.5625 z m -33,-61.2187 q 0,-3.375 -1.313,-6 -1.312,-2.625 -4.406,-4.3125 -2.906,-1.5938 -6.188,-2.0625 -3.281,-0.4688 -8.25,-0.4688 h -13.968 v 28.9688 h 11.906 q 5.812,0 10.031,-0.8438 4.219,-0.9375 6.938,-3.0937 2.906,-2.3438 4.031,-5.1563 1.219,-2.8125 1.219,-7.0312 z"
         style="fill:#00244d;fill-opacity:1"
         id="path10331" />
    </g>
    <flowRoot
       xml:space="preserve"
       id="flowRoot9510"
       style="font-style:normal;font-weight:normal;font-size:26.66666603px;line-height:1.25;font-family:sans-serif;letter-spacing:0px;word-spacing:0px;fill:#000000;fill-opacity:1;stroke:none"
       transform="scale(0.26458333)"><flowRegion
         id="flowRegion9512"><rect
           id="rect9514"
           width="742.85712"
           height="54.285713"
           x="-9851.4287"
           y="-4486.0518" /></flowRegion><flowPara
         id="flowPara9516"></flowPara></flowRoot>    <flowRoot
       xml:space="preserve"
       id="flowRoot10323"
       style="font-style:normal;font-weight:normal;font-size:26.66666603px;line-height:1.25;font-family:sans-serif;letter-spacing:0px;word-spacing:0px;fill:#000000;fill-opacity:1;stroke:none"
       transform="scale(0.26458333)"><flowRegion
         id="flowRegion10325"><rect
           id="rect10327"
           width="4888.5713"
           height="1845.7142"
           x="-13497.143"
           y="-4806.0518" /></flowRegion><flowPara
         id="flowPara10329"></flowPara></flowRoot>  </g>
</svg>
